<svg width="256" height="256" viewBox="0 0 256 256" fill="none" xmlns="http://www.w3.org/2000/svg">
  <defs>
    <linearGradient id="bg" x1="44" y1="36" x2="206" y2="222" gradientUnits="userSpaceOnUse">
      <stop stop-color="#42D0FF"/>
      <stop offset="1" stop-color="#0EA5E9"/>
    </linearGradient>
    <filter id="shadow" x="46" y="50" width="164" height="152" filterUnits="userSpaceOnUse" color-interpolation-filters="sRGB">
      <feDropShadow dx="0" dy="8" stdDeviation="10" flood-color="#0B4A69" flood-opacity="0.18"/>
    </filter>
  </defs>

  <circle cx="128" cy="128" r="106" fill="url(#bg)"/>

  <g filter="url(#shadow)">
    <rect x="68" y="72" width="96" height="96" rx="24" fill="white"/>
    <rect x="86" y="96" width="60" height="12" rx="6" fill="#0E7490"/>
    <rect x="86" y="116" width="40" height="12" rx="6" fill="#38BDF8"/>
    <rect x="86" y="136" width="52" height="12" rx="6" fill="#7DD3FC"/>
  </g>

  <path d="M160 124C173.333 124 184 113.333 184 100C184 86.6667 173.333 76 160 76" stroke="white" stroke-width="14" stroke-linecap="round"/>
  <path d="M173 62L195 84L173 106" stroke="white" stroke-width="14" stroke-linecap="round" stroke-linejoin="round"/>

  <circle cx="183" cy="154" r="25" fill="#0C4A6E"/>
  <path d="M171 154H195" stroke="white" stroke-width="12" stroke-linecap="round"/>
  <path d="M183 142V166" stroke="white" stroke-width="12" stroke-linecap="round"/>
</svg>
